<svg width="353" height="407" viewBox="0 0 353 407" fill="none" xmlns="http://www.w3.org/2000/svg">
<rect width="353" height="407" fill="#1E1E1E"/>
<path d="M177.01 2.14006L176.5 1.83712L175.99 2.14006L89.7849 53.3052L2.37238 102.378L1.85483 102.669L1.86198 103.262L3.06993 203.5L3.07008 203.512L1.86198 303.738L1.85483 304.331L2.37238 304.622L89.7746 353.689L89.7955 353.701L175.99 404.86L176.5 405.163L177.01 404.86L263.205 353.701L263.225 353.689L350.628 304.622L351.145 304.331L351.138 303.738L349.93 203.512V203.488L351.138 103.262L351.145 102.669L350.628 102.378L263.225 53.3113L263.205 53.2993L177.01 2.14006Z" fill="#E2AA19" stroke="black" stroke-width="2"/>
<g filter="url(#filter0_i_0_1)">
<path d="M177 10L190.76 18.167L204.713 26L204.52 42L204.713 58L190.76 65.833L177 74L163.24 65.833L149.287 58L149.48 42L149.287 26L163.24 18.167L177 10Z" fill="#E2AA19"/>
</g>
<path d="M190.505 18.597L190.505 18.5971L190.515 18.603L204.209 26.2907L204.02 41.994L204.02 41.994L204.02 42.006L204.209 57.7093L190.515 65.397L190.515 65.3969L190.505 65.403L177 73.4186L163.495 65.403L163.495 65.4029L163.485 65.397L149.791 57.7093L149.98 42.006L149.98 42.006L149.98 41.994L149.791 26.2907L163.485 18.603L163.485 18.6031L163.495 18.597L177 10.5814L190.505 18.597Z" stroke="#BB8907"/>
<g filter="url(#filter1_i_0_1)">
<path d="M145 63L158.76 71.167L172.713 79L172.52 95L172.713 111L158.76 118.833L145 127L131.24 118.833L117.287 111L117.48 95L117.287 79L131.24 71.167L145 63Z" fill="#DDB03E"/>
</g>
<path d="M158.505 71.597L158.505 71.5971L158.515 71.603L172.209 79.2907L172.02 94.994L172.02 94.994L172.02 95.006L172.209 110.709L158.515 118.397L158.515 118.397L158.505 118.403L145 126.419L131.495 118.403L131.495 118.403L131.485 118.397L117.791 110.709L117.98 95.006L117.98 95.006L117.98 94.994L117.791 79.2907L131.485 71.603L131.485 71.6031L131.495 71.597L145 63.5814L158.505 71.597Z" stroke="#BB8907"/>
<g filter="url(#filter2_i_0_1)">
<path d="M208 63L221.76 71.167L235.713 79L235.52 95L235.713 111L221.76 118.833L208 127L194.24 118.833L180.287 111L180.48 95L180.287 79L194.24 71.167L208 63Z" fill="#C58526"/>
</g>
<path d="M221.505 71.597L221.505 71.5971L221.515 71.603L235.209 79.2907L235.02 94.994L235.02 94.994L235.02 95.006L235.209 110.709L221.515 118.397L221.515 118.397L221.505 118.403L208 126.419L194.495 118.403L194.495 118.403L194.485 118.397L180.791 110.709L180.98 95.006L180.98 95.006L180.98 94.994L180.791 79.2907L194.485 71.603L194.485 71.6031L194.495 71.597L208 63.5814L221.505 71.597Z" stroke="#BB8907"/>
<g filter="url(#filter3_i_0_1)">
<path d="M272 63L285.76 71.167L299.713 79L299.52 95L299.713 111L285.76 118.833L272 127L258.24 118.833L244.287 111L244.48 95L244.287 79L258.24 71.167L272 63Z" fill="#E2AA19"/>
</g>
<path d="M285.505 71.597L285.505 71.5971L285.515 71.603L299.209 79.2907L299.02 94.994L299.02 94.994L299.02 95.006L299.209 110.709L285.515 118.397L285.515 118.397L285.505 118.403L272 126.419L258.495 118.403L258.495 118.403L258.485 118.397L244.791 110.709L244.98 95.006L244.98 95.006L244.98 94.994L244.791 79.2907L258.485 71.603L258.485 71.6031L258.495 71.597L272 63.5814L285.505 71.597Z" stroke="#BB8907"/>
<g filter="url(#filter4_i_0_1)">
<path d="M82 63L95.76 71.167L109.713 79L109.52 95L109.713 111L95.76 118.833L82 127L68.24 118.833L54.2872 111L54.48 95L54.2872 79L68.24 71.167L82 63Z" fill="#EFB829"/>
</g>
<path d="M95.5048 71.597L95.5047 71.5971L95.5152 71.603L109.209 79.2907L109.02 94.994L109.02 94.994L109.02 95.006L109.209 110.709L95.5152 118.397L95.5152 118.397L95.5048 118.403L82 126.419L68.4952 118.403L68.4953 118.403L68.4848 118.397L54.7907 110.709L54.98 95.006L54.9801 95.006L54.98 94.994L54.7907 79.2907L68.4848 71.603L68.4848 71.6031L68.4952 71.597L82 63.5814L95.5048 71.597Z" stroke="#BB8907"/>
<g filter="url(#filter5_i_0_1)">
<path d="M176 118L189.76 126.167L203.713 134L203.52 150L203.713 166L189.76 173.833L176 182L162.24 173.833L148.287 166L148.48 150L148.287 134L162.24 126.167L176 118Z" fill="#BE9220"/>
</g>
<path d="M189.505 126.597L189.505 126.597L189.515 126.603L203.209 134.291L203.02 149.994L203.02 149.994L203.02 150.006L203.209 165.709L189.515 173.397L189.515 173.397L189.505 173.403L176 181.419L162.495 173.403L162.495 173.403L162.485 173.397L148.791 165.709L148.98 150.006L148.98 150.006L148.98 149.994L148.791 134.291L162.485 126.603L162.485 126.603L162.495 126.597L176 118.581L189.505 126.597Z" stroke="#BB8907"/>
<g filter="url(#filter6_i_0_1)">
<path d="M240 118L253.76 126.167L267.713 134L267.52 150L267.713 166L253.76 173.833L240 182L226.24 173.833L212.287 166L212.48 150L212.287 134L226.24 126.167L240 118Z" fill="#E29219"/>
</g>
<path d="M253.505 126.597L253.505 126.597L253.515 126.603L267.209 134.291L267.02 149.994L267.02 149.994L267.02 150.006L267.209 165.709L253.515 173.397L253.515 173.397L253.505 173.403L240 181.419L226.495 173.403L226.495 173.403L226.485 173.397L212.791 165.709L212.98 150.006L212.98 150.006L212.98 149.994L212.791 134.291L226.485 126.603L226.485 126.603L226.495 126.597L240 118.581L253.505 126.597Z" stroke="#BB8907"/>
<g filter="url(#filter7_i_0_1)">
<path d="M112 118L125.76 126.167L139.713 134L139.52 150L139.713 166L125.76 173.833L112 182L98.24 173.833L84.2872 166L84.48 150L84.2872 134L98.24 126.167L112 118Z" fill="#DFB23E"/>
</g>
<path d="M125.505 126.597L125.505 126.597L125.515 126.603L139.209 134.291L139.02 149.994L139.02 149.994L139.02 150.006L139.209 165.709L125.515 173.397L125.515 173.397L125.505 173.403L112 181.419L98.4952 173.403L98.4953 173.403L98.4848 173.397L84.7907 165.709L84.98 150.006L84.9801 150.006L84.98 149.994L84.7907 134.291L98.4848 126.603L98.4848 126.603L98.4952 126.597L112 118.581L125.505 126.597Z" stroke="#BB8907"/>
<g filter="url(#filter8_i_0_1)">
<path d="M208 171L221.76 179.167L235.713 187L235.52 203L235.713 219L221.76 226.833L208 235L194.24 226.833L180.287 219L180.48 203L180.287 187L194.24 179.167L208 171Z" fill="#E2A225"/>
</g>
<path d="M221.505 179.597L221.505 179.597L221.515 179.603L235.209 187.291L235.02 202.994L235.02 202.994L235.02 203.006L235.209 218.709L221.515 226.397L221.515 226.397L221.505 226.403L208 234.419L194.495 226.403L194.495 226.403L194.485 226.397L180.791 218.709L180.98 203.006L180.98 203.006L180.98 202.994L180.791 187.291L194.485 179.603L194.485 179.603L194.495 179.597L208 171.581L221.505 179.597Z" stroke="#BB8907"/>
<g filter="url(#filter9_i_0_1)">
<path d="M80 171L93.76 179.167L107.713 187L107.52 203L107.713 219L93.76 226.833L80 235L66.24 226.833L52.2872 219L52.48 203L52.2872 187L66.24 179.167L80 171Z" fill="#E2AA19"/>
</g>
<path d="M93.5048 179.597L93.5047 179.597L93.5152 179.603L107.209 187.291L107.02 202.994L107.02 202.994L107.02 203.006L107.209 218.709L93.5152 226.397L93.5152 226.397L93.5048 226.403L80 234.419L66.4952 226.403L66.4953 226.403L66.4848 226.397L52.7907 218.709L52.98 203.006L52.9801 203.006L52.98 202.994L52.7907 187.291L66.4848 179.603L66.4848 179.603L66.4952 179.597L80 171.581L93.5048 179.597Z" stroke="#BB8907"/>
<g filter="url(#filter10_i_0_1)">
<path d="M144 171L157.76 179.167L171.713 187L171.52 203L171.713 219L157.76 226.833L144 235L130.24 226.833L116.287 219L116.48 203L116.287 187L130.24 179.167L144 171Z" fill="#E2AA19"/>
</g>
<path d="M157.505 179.597L157.505 179.597L157.515 179.603L171.209 187.291L171.02 202.994L171.02 202.994L171.02 203.006L171.209 218.709L157.515 226.397L157.515 226.397L157.505 226.403L144 234.419L130.495 226.403L130.495 226.403L130.485 226.397L116.791 218.709L116.98 203.006L116.98 203.006L116.98 202.994L116.791 187.291L130.485 179.603L130.485 179.603L130.495 179.597L144 171.581L157.505 179.597Z" stroke="#BB8907"/>
<g filter="url(#filter11_i_0_1)">
<path d="M272 171L285.76 179.167L299.713 187L299.52 203L299.713 219L285.76 226.833L272 235L258.24 226.833L244.287 219L244.48 203L244.287 187L258.24 179.167L272 171Z" fill="#CD962C"/>
</g>
<path d="M285.505 179.597L285.505 179.597L285.515 179.603L299.209 187.291L299.02 202.994L299.02 202.994L299.02 203.006L299.209 218.709L285.515 226.397L285.515 226.397L285.505 226.403L272 234.419L258.495 226.403L258.495 226.403L258.485 226.397L244.791 218.709L244.98 203.006L244.98 203.006L244.98 202.994L244.791 187.291L258.485 179.603L258.485 179.603L258.495 179.597L272 171.581L285.505 179.597Z" stroke="#BB8907"/>
<g filter="url(#filter12_i_0_1)">
<path d="M240 226L253.76 234.167L267.713 242L267.52 258L267.713 274L253.76 281.833L240 290L226.24 281.833L212.287 274L212.48 258L212.287 242L226.24 234.167L240 226Z" fill="#DCB44F"/>
</g>
<path d="M253.505 234.597L253.505 234.597L253.515 234.603L267.209 242.291L267.02 257.994L267.02 257.994L267.02 258.006L267.209 273.709L253.515 281.397L253.515 281.397L253.505 281.403L240 289.419L226.495 281.403L226.495 281.403L226.485 281.397L212.791 273.709L212.98 258.006L212.98 258.006L212.98 257.994L212.791 242.291L226.485 234.603L226.485 234.603L226.495 234.597L240 226.581L253.505 234.597Z" stroke="#BB8907"/>
<g filter="url(#filter13_i_0_1)">
<path d="M303 226L316.76 234.167L330.713 242L330.52 258L330.713 274L316.76 281.833L303 290L289.24 281.833L275.287 274L275.48 258L275.287 242L289.24 234.167L303 226Z" fill="#E2AA19"/>
</g>
<path d="M316.505 234.597L316.505 234.597L316.515 234.603L330.209 242.291L330.02 257.994L330.02 257.994L330.02 258.006L330.209 273.709L316.515 281.397L316.515 281.397L316.505 281.403L303 289.419L289.495 281.403L289.495 281.403L289.485 281.397L275.791 273.709L275.98 258.006L275.98 258.006L275.98 257.994L275.791 242.291L289.485 234.603L289.485 234.603L289.495 234.597L303 226.581L316.505 234.597Z" stroke="#BB8907"/>
<g filter="url(#filter14_i_0_1)">
<path d="M48 226L61.76 234.167L75.7128 242L75.52 258L75.7128 274L61.76 281.833L48 290L34.24 281.833L20.2872 274L20.48 258L20.2872 242L34.24 234.167L48 226Z" fill="#E8B73A"/>
</g>
<path d="M61.5048 234.597L61.5047 234.597L61.5152 234.603L75.2093 242.291L75.02 257.994L75.0199 257.994L75.02 258.006L75.2093 273.709L61.5152 281.397L61.5152 281.397L61.5048 281.403L48 289.419L34.4952 281.403L34.4953 281.403L34.4848 281.397L20.7907 273.709L20.98 258.006L20.9801 258.006L20.98 257.994L20.7907 242.291L34.4848 234.603L34.4848 234.603L34.4952 234.597L48 226.581L61.5048 234.597Z" stroke="#BB8907"/>
<g filter="url(#filter15_i_0_1)">
<path d="M82 279L95.76 287.167L109.713 295L109.52 311L109.713 327L95.76 334.833L82 343L68.24 334.833L54.2872 327L54.48 311L54.2872 295L68.24 287.167L82 279Z" fill="#E2AA19"/>
</g>
<path d="M95.5048 287.597L95.5047 287.597L95.5152 287.603L109.209 295.291L109.02 310.994L109.02 310.994L109.02 311.006L109.209 326.709L95.5152 334.397L95.5152 334.397L95.5048 334.403L82 342.419L68.4952 334.403L68.4953 334.403L68.4848 334.397L54.7907 326.709L54.98 311.006L54.9801 311.006L54.98 310.994L54.7907 295.291L68.4848 287.603L68.4848 287.603L68.4952 287.597L82 279.581L95.5048 287.597Z" stroke="#BB8907"/>
<g filter="url(#filter16_i_0_1)">
<path d="M271 279L284.76 287.167L298.713 295L298.52 311L298.713 327L284.76 334.833L271 343L257.24 334.833L243.287 327L243.48 311L243.287 295L257.24 287.167L271 279Z" fill="#BA8E1D"/>
</g>
<path d="M284.505 287.597L284.505 287.597L284.515 287.603L298.209 295.291L298.02 310.994L298.02 310.994L298.02 311.006L298.209 326.709L284.515 334.397L284.515 334.397L284.505 334.403L271 342.419L257.495 334.403L257.495 334.403L257.485 334.397L243.791 326.709L243.98 311.006L243.98 311.006L243.98 310.994L243.791 295.291L257.485 287.603L257.485 287.603L257.495 287.597L271 279.581L284.505 287.597Z" stroke="#BB8907"/>
<g filter="url(#filter17_i_0_1)">
<path d="M177 226L190.76 234.167L204.713 242L204.52 258L204.713 274L190.76 281.833L177 290L163.24 281.833L149.287 274L149.48 258L149.287 242L163.24 234.167L177 226Z" fill="#E2AA19"/>
</g>
<path d="M190.505 234.597L190.505 234.597L190.515 234.603L204.209 242.291L204.02 257.994L204.02 257.994L204.02 258.006L204.209 273.709L190.515 281.397L190.515 281.397L190.505 281.403L177 289.419L163.495 281.403L163.495 281.403L163.485 281.397L149.791 273.709L149.98 258.006L149.98 258.006L149.98 257.994L149.791 242.291L163.485 234.603L163.485 234.603L163.495 234.597L177 226.581L190.505 234.597Z" stroke="#BB8907"/>
<g filter="url(#filter18_i_0_1)">
<path d="M208 279L221.76 287.167L235.713 295L235.52 311L235.713 327L221.76 334.833L208 343L194.24 334.833L180.287 327L180.48 311L180.287 295L194.24 287.167L208 279Z" fill="#CE8F15"/>
</g>
<path d="M221.505 287.597L221.505 287.597L221.515 287.603L235.209 295.291L235.02 310.994L235.02 310.994L235.02 311.006L235.209 326.709L221.515 334.397L221.515 334.397L221.505 334.403L208 342.419L194.495 334.403L194.495 334.403L194.485 334.397L180.791 326.709L180.98 311.006L180.98 311.006L180.98 310.994L180.791 295.291L194.485 287.603L194.485 287.603L194.495 287.597L208 279.581L221.505 287.597Z" stroke="#BB8907"/>
<g filter="url(#filter19_i_0_1)">
<path d="M176 334L189.76 342.167L203.713 350L203.52 366L203.713 382L189.76 389.833L176 398L162.24 389.833L148.287 382L148.48 366L148.287 350L162.24 342.167L176 334Z" fill="#E2AA19"/>
</g>
<path d="M189.505 342.597L189.505 342.597L189.515 342.603L203.209 350.291L203.02 365.994L203.02 365.994L203.02 366.006L203.209 381.709L189.515 389.397L189.515 389.397L189.505 389.403L176 397.419L162.495 389.403L162.495 389.403L162.485 389.397L148.791 381.709L148.98 366.006L148.98 366.006L148.98 365.994L148.791 350.291L162.485 342.603L162.485 342.603L162.495 342.597L176 334.581L189.505 342.597Z" stroke="#BB8907"/>
<g filter="url(#filter20_i_0_1)">
<path d="M145 279L158.76 287.167L172.713 295L172.52 311L172.713 327L158.76 334.833L145 343L131.24 334.833L117.287 327L117.48 311L117.287 295L131.24 287.167L145 279Z" fill="#D5A93B"/>
</g>
<path d="M158.505 287.597L158.505 287.597L158.515 287.603L172.209 295.291L172.02 310.994L172.02 310.994L172.02 311.006L172.209 326.709L158.515 334.397L158.515 334.397L158.505 334.403L145 342.419L131.495 334.403L131.495 334.403L131.485 334.397L117.791 326.709L117.98 311.006L117.98 311.006L117.98 310.994L117.791 295.291L131.485 287.603L131.485 287.603L131.495 287.597L145 279.581L158.505 287.597Z" stroke="#BB8907"/>
<g filter="url(#filter21_i_0_1)">
<path d="M113 226L126.76 234.167L140.713 242L140.52 258L140.713 274L126.76 281.833L113 290L99.24 281.833L85.2872 274L85.48 258L85.2872 242L99.24 234.167L113 226Z" fill="#F2B02F"/>
</g>
<path d="M126.505 234.597L126.505 234.597L126.515 234.603L140.209 242.291L140.02 257.994L140.02 257.994L140.02 258.006L140.209 273.709L126.515 281.397L126.515 281.397L126.505 281.403L113 289.419L99.4952 281.403L99.4953 281.403L99.4848 281.397L85.7907 273.709L85.98 258.006L85.9801 258.006L85.98 257.994L85.7907 242.291L99.4848 234.603L99.4848 234.603L99.4952 234.597L113 226.581L126.505 234.597Z" stroke="#BB8907"/>
<g filter="url(#filter22_i_0_1)">
<path d="M50 118L63.76 126.167L77.7128 134L77.52 150L77.7128 166L63.76 173.833L50 182L36.24 173.833L22.2872 166L22.48 150L22.2872 134L36.24 126.167L50 118Z" fill="#C58526"/>
</g>
<path d="M63.5048 126.597L63.5047 126.597L63.5152 126.603L77.2093 134.291L77.02 149.994L77.0199 149.994L77.02 150.006L77.2093 165.709L63.5152 173.397L63.5152 173.397L63.5048 173.403L50 181.419L36.4952 173.403L36.4953 173.403L36.4848 173.397L22.7907 165.709L22.98 150.006L22.9801 150.006L22.98 149.994L22.7907 134.291L36.4848 126.603L36.4848 126.603L36.4952 126.597L50 118.581L63.5048 126.597Z" stroke="#BB8907"/>
<g filter="url(#filter23_i_0_1)">
<path d="M304 118L317.76 126.167L331.713 134L331.52 150L331.713 166L317.76 173.833L304 182L290.24 173.833L276.287 166L276.48 150L276.287 134L290.24 126.167L304 118Z" fill="#ECBA39"/>
</g>
<path d="M317.505 126.597L317.505 126.597L317.515 126.603L331.209 134.291L331.02 149.994L331.02 149.994L331.02 150.006L331.209 165.709L317.515 173.397L317.515 173.397L317.505 173.403L304 181.419L290.495 173.403L290.495 173.403L290.485 173.397L276.791 165.709L276.98 150.006L276.98 150.006L276.98 149.994L276.791 134.291L290.485 126.603L290.485 126.603L290.495 126.597L304 118.581L317.505 126.597Z" stroke="#BB8907"/>
<g filter="url(#filter24_d_0_1)">
<path d="M89.4393 180.32C88.8165 149.874 115.549 121.634 114.453 125.569C113.357 129.504 98.3024 156.849 103.137 180.32C113.24 178.473 133.811 239.385 103.137 239.833C72.464 240.28 69.9904 207.164 89.4393 180.32Z" fill="black"/>
<path d="M133.511 148.779C138.039 123.304 142.312 109.107 161.503 92.8373C151.969 111.874 149.841 124.314 150.187 148.779C171.098 179.971 160.039 207.96 140.062 207.101C120.086 206.242 105.835 176.604 133.511 148.779Z" fill="black"/>
<path d="M179.37 144.018C184.901 143.233 182.733 104.927 179.37 86.8861C176.006 68.8449 194.226 118.03 194.259 144.018C195.039 144.948 195.373 145.675 195.362 146.233C210.865 178.049 205.701 198.295 184.134 199.959C164.702 197.331 157.062 185.579 178.948 144.801C178.439 144.433 178.49 144.143 179.37 144.018Z" fill="black"/>
<path d="M229.993 153.54C230.923 137.475 228.795 127.029 220.464 105.93C236.59 123.836 242.234 134.958 241.308 158.301C252.398 190.883 239.025 206.254 220.464 207.101C195.107 195.634 203.281 169.343 229.993 153.54Z" fill="black"/>
<path d="M259.771 186.867C263.412 172.806 262.312 166.226 259.771 148.779C269.704 163.919 271.39 173.088 268.704 190.437C279.042 210.402 277.044 217.943 259.771 224.955C232.847 220.217 238.692 194.541 259.771 186.867Z" fill="black"/>
<path d="M253.22 289.823C228.656 297.226 198.682 299.804 179.37 303.511C160.057 307.218 148.069 322.377 133.511 323.745C119.465 324.588 111.541 324.551 95.395 303.511C81.2489 279.114 81.6239 257.935 89.4393 252.925C97.2548 247.916 120.284 245.934 133.511 224.955C155.472 215.513 168.837 213.914 194.259 216.623C214.644 219.641 224.653 222.977 241.308 230.311C254.693 234.088 260.853 238.735 268.704 252.925C268.989 268.568 266.735 276.868 253.22 289.823Z" fill="black"/>
<path d="M204.138 184.511C206.218 175.121 203.593 162.018 195.865 146.123V146.123L195.86 146.114C195.828 145.435 195.438 144.677 194.758 143.838C194.7 130.771 190.14 112.029 186.018 98.7923C183.948 92.1444 181.975 86.8427 180.72 84.3242C180.409 83.7006 180.124 83.2092 179.876 82.9116C179.765 82.7786 179.595 82.6015 179.372 82.5312C179.24 82.4894 179.071 82.4809 178.904 82.561C178.747 82.6364 178.654 82.7604 178.601 82.8601C178.503 83.0445 178.472 83.275 178.461 83.4833C178.449 83.7093 178.457 83.9861 178.484 84.31C178.537 84.9591 178.667 85.8432 178.878 86.9777C180.554 95.967 181.935 110.026 182.205 121.934C182.34 127.89 182.197 133.286 181.68 137.232C181.421 139.209 181.072 140.792 180.631 141.892C180.411 142.442 180.178 142.846 179.942 143.116C179.709 143.382 179.494 143.495 179.299 143.523C179.06 143.557 178.844 143.606 178.668 143.68C178.505 143.748 178.288 143.874 178.181 144.117C178.058 144.394 178.151 144.652 178.257 144.815C178.278 144.846 178.3 144.876 178.324 144.905L178.3 144.95L178.301 144.95C172.935 154.987 169.358 163.276 167.313 170.109C165.244 177.026 164.733 182.488 165.556 186.78C166.382 191.093 168.552 194.197 171.767 196.38C174.965 198.55 179.173 199.793 184.067 200.455L184.12 200.462L184.173 200.458C189.639 200.036 194.109 198.433 197.48 195.727C200.855 193.017 203.092 189.231 204.138 184.511ZM103.539 179.779C101.299 168.292 103.802 155.876 107.047 145.772C108.689 140.661 110.516 136.157 112.003 132.68C112.483 131.557 112.926 130.545 113.317 129.653C113.532 129.161 113.732 128.706 113.913 128.288C114.415 127.129 114.786 126.236 114.935 125.703C114.975 125.56 115.016 125.352 114.955 125.149C114.919 125.032 114.847 124.907 114.718 124.816C114.593 124.728 114.459 124.702 114.353 124.701C114.161 124.698 113.98 124.773 113.848 124.839C113.701 124.913 113.541 125.016 113.373 125.139C112.706 125.624 111.727 126.554 110.55 127.845C108.185 130.439 104.948 134.576 101.699 139.787C95.2311 150.161 88.6731 164.861 88.9363 180.163C79.2288 193.622 74.9553 208.685 77 220.397C78.0274 226.281 80.6545 231.334 85.0056 234.885C89.3568 238.436 95.3851 240.446 103.145 240.333C107.065 240.275 110.203 239.25 112.652 237.476C115.099 235.703 116.824 233.208 117.965 230.266C120.239 224.399 120.213 216.695 118.921 209.132C117.627 201.557 115.051 194.052 112.155 188.544C110.709 185.793 109.169 183.516 107.652 181.978C106.319 180.626 104.909 179.753 103.539 179.779ZM219.999 106.114C228.268 127.055 230.394 137.428 229.509 153.246C216.214 161.172 207.455 171.731 205.215 181.838C204.085 186.932 204.613 191.914 207.061 196.358C209.507 200.798 213.845 204.656 220.258 207.556L220.367 207.606L220.486 207.6C229.901 207.171 238.068 203.047 242.446 194.837C246.807 186.66 247.348 174.542 241.812 158.228C242.266 146.558 241.081 137.888 237.742 129.884C234.398 121.868 228.909 114.56 220.835 105.595L219.999 106.114ZM259.453 150.064C261.851 166.502 262.803 173.034 259.352 186.488C248.817 190.415 242.018 198.823 241.272 206.966C240.895 211.082 242.069 215.117 245.078 218.421C248.082 221.718 252.878 224.249 259.684 225.447L259.826 225.472L259.959 225.418C268.608 221.907 273.643 218.189 275.075 212.679C275.788 209.937 275.591 206.809 274.581 203.135C273.58 199.497 271.775 195.294 269.223 190.353C270.548 181.73 270.796 175.076 269.459 168.677C268.114 162.238 265.173 156.101 260.189 148.505L259.276 148.851C259.336 149.261 259.395 149.666 259.453 150.064ZM161.95 93.0612L161.179 92.4559C151.538 100.629 145.623 108.303 141.554 117.147C137.508 125.942 135.301 135.871 133.046 148.537C119.205 162.511 115.79 177 118.431 188.167C121.074 199.346 129.796 207.16 140.041 207.6C150.317 208.042 158.251 201.046 160.943 190.078C163.625 179.149 161.128 164.26 150.685 148.624C150.518 136.478 150.967 127.332 152.631 118.869C154.3 110.377 157.197 102.551 161.95 93.0612ZM253.364 290.302L253.479 290.267L253.566 290.184C260.35 283.681 264.348 278.308 266.602 272.565C268.856 266.822 269.347 260.758 269.204 252.916L269.202 252.792L269.142 252.683C265.203 245.564 261.663 240.791 257.396 237.325C253.134 233.862 248.184 231.734 241.478 229.839C224.806 222.5 214.754 219.152 194.332 216.128L194.322 216.127L194.312 216.126C181.584 214.769 171.842 214.488 162.521 215.737C153.197 216.986 144.32 219.764 133.314 224.495L133.171 224.557L133.088 224.688C126.546 235.065 117.577 240.751 109.242 244.472C105.429 246.174 101.756 247.462 98.5016 248.603C98.1962 248.71 97.8946 248.815 97.5968 248.92C94.1487 250.132 91.1825 251.214 89.1695 252.504C87.0811 253.843 85.5381 256.228 84.6042 259.369C83.6691 262.514 83.331 266.458 83.6831 270.987C84.3875 280.045 87.8591 291.511 94.9624 303.762L94.9786 303.79L94.9983 303.815C103.087 314.356 109.167 319.706 115.039 322.292C120.918 324.88 126.527 324.665 133.541 324.244L133.549 324.244L133.558 324.243C140.821 323.56 147.436 319.511 154.469 315.206L154.918 314.932C162.155 310.504 169.908 305.836 179.464 304.002C185.712 302.802 193.071 301.722 201.013 300.557C205.332 299.923 209.824 299.264 214.403 298.547C227.386 296.513 241.048 294.013 253.364 290.302Z" stroke="#F2F2F2"/>
</g>
<defs>
<filter id="filter0_i_0_1" x="149.287" y="10" width="56.4256" height="65" filterUnits="userSpaceOnUse" color-interpolation-filters="sRGB">
<feFlood flood-opacity="0" result="BackgroundImageFix"/>
<feBlend mode="normal" in="SourceGraphic" in2="BackgroundImageFix" result="shape"/>
<feColorMatrix in="SourceAlpha" type="matrix" values="0 0 0 0 0 0 0 0 0 0 0 0 0 0 0 0 0 0 127 0" result="hardAlpha"/>
<feOffset dx="1" dy="1"/>
<feGaussianBlur stdDeviation="5"/>
<feComposite in2="hardAlpha" operator="arithmetic" k2="-1" k3="1"/>
<feColorMatrix type="matrix" values="0 0 0 0 0 0 0 0 0 0 0 0 0 0 0 0 0 0 1 0"/>
<feBlend mode="normal" in2="shape" result="effect1_innerShadow_0_1"/>
</filter>
<filter id="filter1_i_0_1" x="117.287" y="63" width="56.4256" height="65" filterUnits="userSpaceOnUse" color-interpolation-filters="sRGB">
<feFlood flood-opacity="0" result="BackgroundImageFix"/>
<feBlend mode="normal" in="SourceGraphic" in2="BackgroundImageFix" result="shape"/>
<feColorMatrix in="SourceAlpha" type="matrix" values="0 0 0 0 0 0 0 0 0 0 0 0 0 0 0 0 0 0 127 0" result="hardAlpha"/>
<feOffset dx="1" dy="1"/>
<feGaussianBlur stdDeviation="5"/>
<feComposite in2="hardAlpha" operator="arithmetic" k2="-1" k3="1"/>
<feColorMatrix type="matrix" values="0 0 0 0 0 0 0 0 0 0 0 0 0 0 0 0 0 0 1 0"/>
<feBlend mode="normal" in2="shape" result="effect1_innerShadow_0_1"/>
</filter>
<filter id="filter2_i_0_1" x="180.287" y="63" width="56.4256" height="65" filterUnits="userSpaceOnUse" color-interpolation-filters="sRGB">
<feFlood flood-opacity="0" result="BackgroundImageFix"/>
<feBlend mode="normal" in="SourceGraphic" in2="BackgroundImageFix" result="shape"/>
<feColorMatrix in="SourceAlpha" type="matrix" values="0 0 0 0 0 0 0 0 0 0 0 0 0 0 0 0 0 0 127 0" result="hardAlpha"/>
<feOffset dx="1" dy="1"/>
<feGaussianBlur stdDeviation="5"/>
<feComposite in2="hardAlpha" operator="arithmetic" k2="-1" k3="1"/>
<feColorMatrix type="matrix" values="0 0 0 0 0 0 0 0 0 0 0 0 0 0 0 0 0 0 1 0"/>
<feBlend mode="normal" in2="shape" result="effect1_innerShadow_0_1"/>
</filter>
<filter id="filter3_i_0_1" x="244.287" y="63" width="56.4256" height="65" filterUnits="userSpaceOnUse" color-interpolation-filters="sRGB">
<feFlood flood-opacity="0" result="BackgroundImageFix"/>
<feBlend mode="normal" in="SourceGraphic" in2="BackgroundImageFix" result="shape"/>
<feColorMatrix in="SourceAlpha" type="matrix" values="0 0 0 0 0 0 0 0 0 0 0 0 0 0 0 0 0 0 127 0" result="hardAlpha"/>
<feOffset dx="1" dy="1"/>
<feGaussianBlur stdDeviation="5"/>
<feComposite in2="hardAlpha" operator="arithmetic" k2="-1" k3="1"/>
<feColorMatrix type="matrix" values="0 0 0 0 0 0 0 0 0 0 0 0 0 0 0 0 0 0 1 0"/>
<feBlend mode="normal" in2="shape" result="effect1_innerShadow_0_1"/>
</filter>
<filter id="filter4_i_0_1" x="54.2872" y="63" width="56.4256" height="65" filterUnits="userSpaceOnUse" color-interpolation-filters="sRGB">
<feFlood flood-opacity="0" result="BackgroundImageFix"/>
<feBlend mode="normal" in="SourceGraphic" in2="BackgroundImageFix" result="shape"/>
<feColorMatrix in="SourceAlpha" type="matrix" values="0 0 0 0 0 0 0 0 0 0 0 0 0 0 0 0 0 0 127 0" result="hardAlpha"/>
<feOffset dx="1" dy="1"/>
<feGaussianBlur stdDeviation="5"/>
<feComposite in2="hardAlpha" operator="arithmetic" k2="-1" k3="1"/>
<feColorMatrix type="matrix" values="0 0 0 0 0 0 0 0 0 0 0 0 0 0 0 0 0 0 1 0"/>
<feBlend mode="normal" in2="shape" result="effect1_innerShadow_0_1"/>
</filter>
<filter id="filter5_i_0_1" x="148.287" y="118" width="56.4256" height="65" filterUnits="userSpaceOnUse" color-interpolation-filters="sRGB">
<feFlood flood-opacity="0" result="BackgroundImageFix"/>
<feBlend mode="normal" in="SourceGraphic" in2="BackgroundImageFix" result="shape"/>
<feColorMatrix in="SourceAlpha" type="matrix" values="0 0 0 0 0 0 0 0 0 0 0 0 0 0 0 0 0 0 127 0" result="hardAlpha"/>
<feOffset dx="1" dy="1"/>
<feGaussianBlur stdDeviation="5"/>
<feComposite in2="hardAlpha" operator="arithmetic" k2="-1" k3="1"/>
<feColorMatrix type="matrix" values="0 0 0 0 0 0 0 0 0 0 0 0 0 0 0 0 0 0 1 0"/>
<feBlend mode="normal" in2="shape" result="effect1_innerShadow_0_1"/>
</filter>
<filter id="filter6_i_0_1" x="212.287" y="118" width="56.4256" height="65" filterUnits="userSpaceOnUse" color-interpolation-filters="sRGB">
<feFlood flood-opacity="0" result="BackgroundImageFix"/>
<feBlend mode="normal" in="SourceGraphic" in2="BackgroundImageFix" result="shape"/>
<feColorMatrix in="SourceAlpha" type="matrix" values="0 0 0 0 0 0 0 0 0 0 0 0 0 0 0 0 0 0 127 0" result="hardAlpha"/>
<feOffset dx="1" dy="1"/>
<feGaussianBlur stdDeviation="5"/>
<feComposite in2="hardAlpha" operator="arithmetic" k2="-1" k3="1"/>
<feColorMatrix type="matrix" values="0 0 0 0 0 0 0 0 0 0 0 0 0 0 0 0 0 0 1 0"/>
<feBlend mode="normal" in2="shape" result="effect1_innerShadow_0_1"/>
</filter>
<filter id="filter7_i_0_1" x="84.2872" y="118" width="56.4256" height="65" filterUnits="userSpaceOnUse" color-interpolation-filters="sRGB">
<feFlood flood-opacity="0" result="BackgroundImageFix"/>
<feBlend mode="normal" in="SourceGraphic" in2="BackgroundImageFix" result="shape"/>
<feColorMatrix in="SourceAlpha" type="matrix" values="0 0 0 0 0 0 0 0 0 0 0 0 0 0 0 0 0 0 127 0" result="hardAlpha"/>
<feOffset dx="1" dy="1"/>
<feGaussianBlur stdDeviation="5"/>
<feComposite in2="hardAlpha" operator="arithmetic" k2="-1" k3="1"/>
<feColorMatrix type="matrix" values="0 0 0 0 0 0 0 0 0 0 0 0 0 0 0 0 0 0 1 0"/>
<feBlend mode="normal" in2="shape" result="effect1_innerShadow_0_1"/>
</filter>
<filter id="filter8_i_0_1" x="180.287" y="171" width="56.4256" height="65" filterUnits="userSpaceOnUse" color-interpolation-filters="sRGB">
<feFlood flood-opacity="0" result="BackgroundImageFix"/>
<feBlend mode="normal" in="SourceGraphic" in2="BackgroundImageFix" result="shape"/>
<feColorMatrix in="SourceAlpha" type="matrix" values="0 0 0 0 0 0 0 0 0 0 0 0 0 0 0 0 0 0 127 0" result="hardAlpha"/>
<feOffset dx="1" dy="1"/>
<feGaussianBlur stdDeviation="5"/>
<feComposite in2="hardAlpha" operator="arithmetic" k2="-1" k3="1"/>
<feColorMatrix type="matrix" values="0 0 0 0 0 0 0 0 0 0 0 0 0 0 0 0 0 0 1 0"/>
<feBlend mode="normal" in2="shape" result="effect1_innerShadow_0_1"/>
</filter>
<filter id="filter9_i_0_1" x="52.2872" y="171" width="56.4256" height="65" filterUnits="userSpaceOnUse" color-interpolation-filters="sRGB">
<feFlood flood-opacity="0" result="BackgroundImageFix"/>
<feBlend mode="normal" in="SourceGraphic" in2="BackgroundImageFix" result="shape"/>
<feColorMatrix in="SourceAlpha" type="matrix" values="0 0 0 0 0 0 0 0 0 0 0 0 0 0 0 0 0 0 127 0" result="hardAlpha"/>
<feOffset dx="1" dy="1"/>
<feGaussianBlur stdDeviation="5"/>
<feComposite in2="hardAlpha" operator="arithmetic" k2="-1" k3="1"/>
<feColorMatrix type="matrix" values="0 0 0 0 0 0 0 0 0 0 0 0 0 0 0 0 0 0 1 0"/>
<feBlend mode="normal" in2="shape" result="effect1_innerShadow_0_1"/>
</filter>
<filter id="filter10_i_0_1" x="116.287" y="171" width="56.4256" height="65" filterUnits="userSpaceOnUse" color-interpolation-filters="sRGB">
<feFlood flood-opacity="0" result="BackgroundImageFix"/>
<feBlend mode="normal" in="SourceGraphic" in2="BackgroundImageFix" result="shape"/>
<feColorMatrix in="SourceAlpha" type="matrix" values="0 0 0 0 0 0 0 0 0 0 0 0 0 0 0 0 0 0 127 0" result="hardAlpha"/>
<feOffset dx="1" dy="1"/>
<feGaussianBlur stdDeviation="5"/>
<feComposite in2="hardAlpha" operator="arithmetic" k2="-1" k3="1"/>
<feColorMatrix type="matrix" values="0 0 0 0 0 0 0 0 0 0 0 0 0 0 0 0 0 0 1 0"/>
<feBlend mode="normal" in2="shape" result="effect1_innerShadow_0_1"/>
</filter>
<filter id="filter11_i_0_1" x="244.287" y="171" width="56.4256" height="65" filterUnits="userSpaceOnUse" color-interpolation-filters="sRGB">
<feFlood flood-opacity="0" result="BackgroundImageFix"/>
<feBlend mode="normal" in="SourceGraphic" in2="BackgroundImageFix" result="shape"/>
<feColorMatrix in="SourceAlpha" type="matrix" values="0 0 0 0 0 0 0 0 0 0 0 0 0 0 0 0 0 0 127 0" result="hardAlpha"/>
<feOffset dx="1" dy="1"/>
<feGaussianBlur stdDeviation="5"/>
<feComposite in2="hardAlpha" operator="arithmetic" k2="-1" k3="1"/>
<feColorMatrix type="matrix" values="0 0 0 0 0 0 0 0 0 0 0 0 0 0 0 0 0 0 1 0"/>
<feBlend mode="normal" in2="shape" result="effect1_innerShadow_0_1"/>
</filter>
<filter id="filter12_i_0_1" x="212.287" y="226" width="56.4256" height="65" filterUnits="userSpaceOnUse" color-interpolation-filters="sRGB">
<feFlood flood-opacity="0" result="BackgroundImageFix"/>
<feBlend mode="normal" in="SourceGraphic" in2="BackgroundImageFix" result="shape"/>
<feColorMatrix in="SourceAlpha" type="matrix" values="0 0 0 0 0 0 0 0 0 0 0 0 0 0 0 0 0 0 127 0" result="hardAlpha"/>
<feOffset dx="1" dy="1"/>
<feGaussianBlur stdDeviation="5"/>
<feComposite in2="hardAlpha" operator="arithmetic" k2="-1" k3="1"/>
<feColorMatrix type="matrix" values="0 0 0 0 0 0 0 0 0 0 0 0 0 0 0 0 0 0 1 0"/>
<feBlend mode="normal" in2="shape" result="effect1_innerShadow_0_1"/>
</filter>
<filter id="filter13_i_0_1" x="275.287" y="226" width="56.4256" height="65" filterUnits="userSpaceOnUse" color-interpolation-filters="sRGB">
<feFlood flood-opacity="0" result="BackgroundImageFix"/>
<feBlend mode="normal" in="SourceGraphic" in2="BackgroundImageFix" result="shape"/>
<feColorMatrix in="SourceAlpha" type="matrix" values="0 0 0 0 0 0 0 0 0 0 0 0 0 0 0 0 0 0 127 0" result="hardAlpha"/>
<feOffset dx="1" dy="1"/>
<feGaussianBlur stdDeviation="5"/>
<feComposite in2="hardAlpha" operator="arithmetic" k2="-1" k3="1"/>
<feColorMatrix type="matrix" values="0 0 0 0 0 0 0 0 0 0 0 0 0 0 0 0 0 0 1 0"/>
<feBlend mode="normal" in2="shape" result="effect1_innerShadow_0_1"/>
</filter>
<filter id="filter14_i_0_1" x="20.2872" y="226" width="56.4256" height="65" filterUnits="userSpaceOnUse" color-interpolation-filters="sRGB">
<feFlood flood-opacity="0" result="BackgroundImageFix"/>
<feBlend mode="normal" in="SourceGraphic" in2="BackgroundImageFix" result="shape"/>
<feColorMatrix in="SourceAlpha" type="matrix" values="0 0 0 0 0 0 0 0 0 0 0 0 0 0 0 0 0 0 127 0" result="hardAlpha"/>
<feOffset dx="1" dy="1"/>
<feGaussianBlur stdDeviation="5"/>
<feComposite in2="hardAlpha" operator="arithmetic" k2="-1" k3="1"/>
<feColorMatrix type="matrix" values="0 0 0 0 0 0 0 0 0 0 0 0 0 0 0 0 0 0 1 0"/>
<feBlend mode="normal" in2="shape" result="effect1_innerShadow_0_1"/>
</filter>
<filter id="filter15_i_0_1" x="54.2872" y="279" width="56.4256" height="65" filterUnits="userSpaceOnUse" color-interpolation-filters="sRGB">
<feFlood flood-opacity="0" result="BackgroundImageFix"/>
<feBlend mode="normal" in="SourceGraphic" in2="BackgroundImageFix" result="shape"/>
<feColorMatrix in="SourceAlpha" type="matrix" values="0 0 0 0 0 0 0 0 0 0 0 0 0 0 0 0 0 0 127 0" result="hardAlpha"/>
<feOffset dx="1" dy="1"/>
<feGaussianBlur stdDeviation="5"/>
<feComposite in2="hardAlpha" operator="arithmetic" k2="-1" k3="1"/>
<feColorMatrix type="matrix" values="0 0 0 0 0 0 0 0 0 0 0 0 0 0 0 0 0 0 1 0"/>
<feBlend mode="normal" in2="shape" result="effect1_innerShadow_0_1"/>
</filter>
<filter id="filter16_i_0_1" x="243.287" y="279" width="56.4256" height="65" filterUnits="userSpaceOnUse" color-interpolation-filters="sRGB">
<feFlood flood-opacity="0" result="BackgroundImageFix"/>
<feBlend mode="normal" in="SourceGraphic" in2="BackgroundImageFix" result="shape"/>
<feColorMatrix in="SourceAlpha" type="matrix" values="0 0 0 0 0 0 0 0 0 0 0 0 0 0 0 0 0 0 127 0" result="hardAlpha"/>
<feOffset dx="1" dy="1"/>
<feGaussianBlur stdDeviation="5"/>
<feComposite in2="hardAlpha" operator="arithmetic" k2="-1" k3="1"/>
<feColorMatrix type="matrix" values="0 0 0 0 0 0 0 0 0 0 0 0 0 0 0 0 0 0 1 0"/>
<feBlend mode="normal" in2="shape" result="effect1_innerShadow_0_1"/>
</filter>
<filter id="filter17_i_0_1" x="149.287" y="226" width="56.4256" height="65" filterUnits="userSpaceOnUse" color-interpolation-filters="sRGB">
<feFlood flood-opacity="0" result="BackgroundImageFix"/>
<feBlend mode="normal" in="SourceGraphic" in2="BackgroundImageFix" result="shape"/>
<feColorMatrix in="SourceAlpha" type="matrix" values="0 0 0 0 0 0 0 0 0 0 0 0 0 0 0 0 0 0 127 0" result="hardAlpha"/>
<feOffset dx="1" dy="1"/>
<feGaussianBlur stdDeviation="5"/>
<feComposite in2="hardAlpha" operator="arithmetic" k2="-1" k3="1"/>
<feColorMatrix type="matrix" values="0 0 0 0 0 0 0 0 0 0 0 0 0 0 0 0 0 0 1 0"/>
<feBlend mode="normal" in2="shape" result="effect1_innerShadow_0_1"/>
</filter>
<filter id="filter18_i_0_1" x="180.287" y="279" width="56.4256" height="65" filterUnits="userSpaceOnUse" color-interpolation-filters="sRGB">
<feFlood flood-opacity="0" result="BackgroundImageFix"/>
<feBlend mode="normal" in="SourceGraphic" in2="BackgroundImageFix" result="shape"/>
<feColorMatrix in="SourceAlpha" type="matrix" values="0 0 0 0 0 0 0 0 0 0 0 0 0 0 0 0 0 0 127 0" result="hardAlpha"/>
<feOffset dx="1" dy="1"/>
<feGaussianBlur stdDeviation="5"/>
<feComposite in2="hardAlpha" operator="arithmetic" k2="-1" k3="1"/>
<feColorMatrix type="matrix" values="0 0 0 0 0 0 0 0 0 0 0 0 0 0 0 0 0 0 1 0"/>
<feBlend mode="normal" in2="shape" result="effect1_innerShadow_0_1"/>
</filter>
<filter id="filter19_i_0_1" x="148.287" y="334" width="56.4256" height="65" filterUnits="userSpaceOnUse" color-interpolation-filters="sRGB">
<feFlood flood-opacity="0" result="BackgroundImageFix"/>
<feBlend mode="normal" in="SourceGraphic" in2="BackgroundImageFix" result="shape"/>
<feColorMatrix in="SourceAlpha" type="matrix" values="0 0 0 0 0 0 0 0 0 0 0 0 0 0 0 0 0 0 127 0" result="hardAlpha"/>
<feOffset dx="1" dy="1"/>
<feGaussianBlur stdDeviation="5"/>
<feComposite in2="hardAlpha" operator="arithmetic" k2="-1" k3="1"/>
<feColorMatrix type="matrix" values="0 0 0 0 0 0 0 0 0 0 0 0 0 0 0 0 0 0 1 0"/>
<feBlend mode="normal" in2="shape" result="effect1_innerShadow_0_1"/>
</filter>
<filter id="filter20_i_0_1" x="117.287" y="279" width="56.4256" height="65" filterUnits="userSpaceOnUse" color-interpolation-filters="sRGB">
<feFlood flood-opacity="0" result="BackgroundImageFix"/>
<feBlend mode="normal" in="SourceGraphic" in2="BackgroundImageFix" result="shape"/>
<feColorMatrix in="SourceAlpha" type="matrix" values="0 0 0 0 0 0 0 0 0 0 0 0 0 0 0 0 0 0 127 0" result="hardAlpha"/>
<feOffset dx="1" dy="1"/>
<feGaussianBlur stdDeviation="5"/>
<feComposite in2="hardAlpha" operator="arithmetic" k2="-1" k3="1"/>
<feColorMatrix type="matrix" values="0 0 0 0 0 0 0 0 0 0 0 0 0 0 0 0 0 0 1 0"/>
<feBlend mode="normal" in2="shape" result="effect1_innerShadow_0_1"/>
</filter>
<filter id="filter21_i_0_1" x="85.2872" y="226" width="56.4256" height="65" filterUnits="userSpaceOnUse" color-interpolation-filters="sRGB">
<feFlood flood-opacity="0" result="BackgroundImageFix"/>
<feBlend mode="normal" in="SourceGraphic" in2="BackgroundImageFix" result="shape"/>
<feColorMatrix in="SourceAlpha" type="matrix" values="0 0 0 0 0 0 0 0 0 0 0 0 0 0 0 0 0 0 127 0" result="hardAlpha"/>
<feOffset dx="1" dy="1"/>
<feGaussianBlur stdDeviation="5"/>
<feComposite in2="hardAlpha" operator="arithmetic" k2="-1" k3="1"/>
<feColorMatrix type="matrix" values="0 0 0 0 0 0 0 0 0 0 0 0 0 0 0 0 0 0 1 0"/>
<feBlend mode="normal" in2="shape" result="effect1_innerShadow_0_1"/>
</filter>
<filter id="filter22_i_0_1" x="22.2872" y="118" width="56.4256" height="65" filterUnits="userSpaceOnUse" color-interpolation-filters="sRGB">
<feFlood flood-opacity="0" result="BackgroundImageFix"/>
<feBlend mode="normal" in="SourceGraphic" in2="BackgroundImageFix" result="shape"/>
<feColorMatrix in="SourceAlpha" type="matrix" values="0 0 0 0 0 0 0 0 0 0 0 0 0 0 0 0 0 0 127 0" result="hardAlpha"/>
<feOffset dx="1" dy="1"/>
<feGaussianBlur stdDeviation="5"/>
<feComposite in2="hardAlpha" operator="arithmetic" k2="-1" k3="1"/>
<feColorMatrix type="matrix" values="0 0 0 0 0 0 0 0 0 0 0 0 0 0 0 0 0 0 1 0"/>
<feBlend mode="normal" in2="shape" result="effect1_innerShadow_0_1"/>
</filter>
<filter id="filter23_i_0_1" x="276.287" y="118" width="56.4256" height="65" filterUnits="userSpaceOnUse" color-interpolation-filters="sRGB">
<feFlood flood-opacity="0" result="BackgroundImageFix"/>
<feBlend mode="normal" in="SourceGraphic" in2="BackgroundImageFix" result="shape"/>
<feColorMatrix in="SourceAlpha" type="matrix" values="0 0 0 0 0 0 0 0 0 0 0 0 0 0 0 0 0 0 127 0" result="hardAlpha"/>
<feOffset dx="1" dy="1"/>
<feGaussianBlur stdDeviation="5"/>
<feComposite in2="hardAlpha" operator="arithmetic" k2="-1" k3="1"/>
<feColorMatrix type="matrix" values="0 0 0 0 0 0 0 0 0 0 0 0 0 0 0 0 0 0 1 0"/>
<feBlend mode="normal" in2="shape" result="effect1_innerShadow_0_1"/>
</filter>
<filter id="filter24_d_0_1" x="70.9998" y="77.0001" width="220" height="263.001" filterUnits="userSpaceOnUse" color-interpolation-filters="sRGB">
<feFlood flood-opacity="0" result="BackgroundImageFix"/>
<feColorMatrix in="SourceAlpha" type="matrix" values="0 0 0 0 0 0 0 0 0 0 0 0 0 0 0 0 0 0 127 0" result="hardAlpha"/>
<feOffset dx="5" dy="5"/>
<feGaussianBlur stdDeviation="5"/>
<feComposite in2="hardAlpha" operator="out"/>
<feColorMatrix type="matrix" values="0 0 0 0 0 0 0 0 0 0 0 0 0 0 0 0 0 0 0.5 0"/>
<feBlend mode="darken" in2="BackgroundImageFix" result="effect1_dropShadow_0_1"/>
<feBlend mode="normal" in="SourceGraphic" in2="effect1_dropShadow_0_1" result="shape"/>
</filter>
</defs>
</svg>
